<svg xmlns="http://www.w3.org/2000/svg" width="14.857" height="16" viewBox="0 0 14.857 16">
  <g id="academic" transform="translate(-15 0)">
    <g id="Group_435" data-name="Group 435" transform="translate(22.124 0)">
      <g id="Group_434" data-name="Group 434" transform="translate(0)">
        <path id="Path_9177" data-name="Path 9177" d="M204.953,1.719l-.469-.615.469-.615A.3.3,0,0,0,204.711,0h-2.4A.309.309,0,0,0,202,.3V3.009h.61v-.8h2.1a.305.305,0,0,0,.242-.49Z" transform="translate(-202 0)" fill="#fff"/>
      </g>
    </g>
    <g id="Group_437" data-name="Group 437" transform="translate(15 9.6)">
      <g id="Group_436" data-name="Group 436">
        <path id="Path_9178" data-name="Path 9178" d="M15.452,252a.45.45,0,0,0-.452.447V258.4h3.848V252Zm1,4.724a.3.3,0,0,1-.61,0v-.655a.3.3,0,1,1,.61,0Zm0-2.551a.3.3,0,0,1-.61,0v-.655a.3.3,0,0,1,.61,0Zm1.562,2.551a.3.3,0,0,1-.61,0v-.655a.3.3,0,1,1,.61,0Zm0-2.551a.3.3,0,0,1-.61,0v-.655a.3.3,0,0,1,.61,0Z" transform="translate(-15 -252)" fill="#fff"/>
      </g>
    </g>
    <g id="Group_439" data-name="Group 439" transform="translate(19.457 5.352)">
      <g id="Group_438" data-name="Group 438">
        <path id="Path_9179" data-name="Path 9179" d="M134.922,140.5,132,142.986v8.162h1.333v-3.174a.286.286,0,0,1,.278-.293h2.635a.28.28,0,0,1,.287.273c0,.007,0,.014,0,.02v3.174h1.3v-8.165Zm1.324,5.467H133.61a.3.3,0,1,1,0-.61h2.637a.3.3,0,1,1,0,.61Z" transform="translate(-132 -140.5)" fill="#fff"/>
      </g>
    </g>
    <g id="Group_441" data-name="Group 441" transform="translate(25.895 9.6)">
      <g id="Group_440" data-name="Group 440" transform="translate(0)">
        <path id="Path_9180" data-name="Path 9180" d="M304.516,252H301v6.4h3.962v-5.947A.45.45,0,0,0,304.516,252Zm-1.954,4.724a.3.3,0,0,1-.609,0v-.655a.3.3,0,0,1,.609,0Zm0-2.551a.3.3,0,1,1-.609,0v-.655a.3.3,0,0,1,.609,0Zm1.524,2.551a.3.3,0,0,1-.61,0v-.655a.3.3,0,0,1,.61,0Zm0-2.551a.3.3,0,1,1-.61,0v-.655a.3.3,0,0,1,.61,0Z" transform="translate(-301 -252)" fill="#fff"/>
      </g>
    </g>
    <g id="Group_443" data-name="Group 443" transform="translate(18.033 3.422)">
      <g id="Group_442" data-name="Group 442">
        <path id="Path_9181" data-name="Path 9181" d="M98.978,89.836,94.617,93.57l.551.641,3.612-3.078a.3.3,0,0,1,.4,0l3.6,3.079.564-.644Z" transform="translate(-94.617 -89.836)" fill="#fff"/>
      </g>
    </g>
    <g id="Group_445" data-name="Group 445" transform="translate(21.384 13.159)">
      <g id="Group_444" data-name="Group 444" transform="translate(0 0)">
        <rect id="Rectangle_573" data-name="Rectangle 573" width="2.008" height="2.841" fill="#fff"/>
      </g>
    </g>
  </g>
</svg>
