<svg id="accounting" xmlns="http://www.w3.org/2000/svg" width="16.654" height="16.654" viewBox="0 0 16.654 16.654">
  <path id="Path_9157" data-name="Path 9157" d="M.976,151.976v1.008h14.7v-1.008a.979.979,0,0,1,.976-.976H0A.979.979,0,0,1,.976,151.976Z" transform="translate(0 -146.088)" fill="#fff"/>
  <path id="Path_9158" data-name="Path 9158" d="M45,247.855h2.928a.488.488,0,0,1-.488-.488v-4.879a.488.488,0,0,1,.488-.488H45a.488.488,0,0,1,.488.488v4.879A.488.488,0,0,1,45,247.855Z" transform="translate(-43.536 -234.128)" fill="#fff"/>
  <path id="Path_9159" data-name="Path 9159" d="M15.678,452H.976v.976H0v.976H16.654v-.976h-.976Z" transform="translate(0 -437.297)" fill="#fff"/>
  <path id="Path_9160" data-name="Path 9160" d="M377,247.855h2.928a.488.488,0,0,1-.488-.488v-4.879a.488.488,0,0,1,.488-.488H377a.488.488,0,0,1,.488.488v4.879A.488.488,0,0,1,377,247.855Z" transform="translate(-364.737 -234.128)" fill="#fff"/>
  <path id="Path_9161" data-name="Path 9161" d="M212.464,246.391a.488.488,0,0,1-.488-.488H211a1.461,1.461,0,0,0,.976,1.374v.578h.976v-.578a1.46,1.46,0,0,0-.488-2.838.488.488,0,1,1,.488-.488h.976a1.461,1.461,0,0,0-.976-1.374V242h-.976v.578a1.46,1.46,0,0,0,.488,2.838.488.488,0,0,1,0,.976Z" transform="translate(-204.137 -234.128)" fill="#fff"/>
  <path id="Path_9162" data-name="Path 9162" d="M0,2.09V3.936H16.654V2.09L8.327,0Zm8.815.382H7.839V1.5h.976Z" fill="#fff"/>
</svg>
