<svg xmlns="http://www.w3.org/2000/svg" width="16.015" height="17.001" viewBox="0 0 16.015 17.001">
  <g id="admin" transform="translate(-13.766)">
    <path id="Path_9189" data-name="Path 9189" d="M232.58,93.122c-.022-.406-.436-.337-.841-.337A3.581,3.581,0,0,1,232.58,93.122Z" transform="translate(-210.164 -89.457)" fill="#fff"/>
    <path id="Path_9190" data-name="Path 9190" d="M89.387,73.928a1.674,1.674,0,0,0-1.038,2.987,3.624,3.624,0,0,1,2.4-2.287A1.675,1.675,0,0,0,89.387,73.928Z" transform="translate(-71.295 -71.28)" fill="#fff"/>
    <path id="Path_9191" data-name="Path 9191" d="M14.849,5.324a3.482,3.482,0,0,0,.245.589l-.516.516a.355.355,0,0,0,0,.5l.909.909a.357.357,0,0,0,.5,0l.515-.516c.077.041.163.066.243.1,0-.006,0-.012,0-.018a5.289,5.289,0,0,1,.135-1.193,2.243,2.243,0,1,1,3.16-2.987,3.911,3.911,0,0,1,1.267.037,3.385,3.385,0,0,0-.219-.526l.516-.516a.353.353,0,0,0,0-.5L20.7.812a.354.354,0,0,0-.5,0l-.517.516a3.323,3.323,0,0,0-.589-.245V.355A.354.354,0,0,0,18.735,0H17.449a.355.355,0,0,0-.355.355v.729a3.358,3.358,0,0,0-.589.245L15.99.813a.355.355,0,0,0-.5,0l-.91.909a.356.356,0,0,0,0,.5l.516.516a3.4,3.4,0,0,0-.244.589h-.729a.355.355,0,0,0-.355.355V4.969a.355.355,0,0,0,.355.355Z" fill="#fff"/>
    <path id="Path_9192" data-name="Path 9192" d="M284.3,248.218a1.826,1.826,0,1,0-1.841-3.152,6.6,6.6,0,0,1-.781,1.87A5.492,5.492,0,0,1,284.3,248.218Z" transform="translate(-258.318 -236.014)" fill="#fff"/>
    <path id="Path_9193" data-name="Path 9193" d="M309.974,169.626a.383.383,0,0,0-.383-.383H308.8a3.633,3.633,0,0,0-.265-.636l.557-.557a.382.382,0,0,0,0-.542l-.98-.981a.382.382,0,0,0-.541,0l-.558.557a3.579,3.579,0,0,0-.636-.264v-.787a.382.382,0,0,0-.382-.383h-1.387a.377.377,0,0,0-.241.092,5.216,5.216,0,0,1,.181,1.381,6.636,6.636,0,0,1-.07.947,2.371,2.371,0,0,1,.824-.155,2.4,2.4,0,0,1,1.3,4.42,5.479,5.479,0,0,1,1.117,1.862.393.393,0,0,0,.127.025.382.382,0,0,0,.271-.112l.981-.981a.385.385,0,0,0,0-.542l-.558-.557a3.617,3.617,0,0,0,.265-.636h.787a.384.384,0,0,0,.383-.383Z" transform="translate(-280.194 -159.718)" fill="#fff"/>
    <path id="Path_9194" data-name="Path 9194" d="M32.575,330.005a4.634,4.634,0,0,0-3.981-3.117,2.851,2.851,0,0,1-4.422,0,4.634,4.634,0,0,0-3.982,3.118l-.329.968a.912.912,0,0,0,.863,1.205H32.041a.911.911,0,0,0,.863-1.205Z" transform="translate(-5.831 -315.177)" fill="#fff"/>
    <path id="Path_9195" data-name="Path 9195" d="M120.842,115.871c0,2.171,1.321,4.5,2.95,4.5s2.951-2.329,2.951-4.5C126.743,111.372,120.842,111.363,120.842,115.871Z" transform="translate(-103.24 -108.463)" fill="#fff"/>
  </g>
</svg>
