<svg xmlns="http://www.w3.org/2000/svg" width="33.482" height="24.718" viewBox="0 0 33.482 24.718">
  <g id="Group_1866" data-name="Group 1866" transform="translate(-40.999 -45.999)">
    <path id="Subtraction_8" data-name="Subtraction 8" d="M-1218.442-14550.677h-13.309a2.217,2.217,0,0,1-2.249-2.18v-1.3a5.321,5.321,0,0,1,5.4-5.226h.388a7.623,7.623,0,0,0,3.211.728,7.57,7.57,0,0,0,3.211-.728h.391a5.441,5.441,0,0,1,4.882,3,6.571,6.571,0,0,0-2,4.738,6.748,6.748,0,0,0,.071.976Zm-16.97-4.355h-3.086a1.48,1.48,0,0,1-1.5-1.451v-1.452a2.958,2.958,0,0,1,3-2.9h3a3.019,3.019,0,0,1,2.114.845,6.7,6.7,0,0,0-3.525,4.961Zm20.064-2.27h0a6.77,6.77,0,0,0-2.766-2.691,3.035,3.035,0,0,1,2.114-.845h3a3.032,3.032,0,0,1,2.1.828,2.848,2.848,0,0,1,.9,2.008,6.608,6.608,0,0,0-1.886-.272,6.622,6.622,0,0,0-3.46.974Zm-9.652-3.537a5.171,5.171,0,0,1-5.248-5.079A5.173,5.173,0,0,1-1225-14571a5.175,5.175,0,0,1,5.251,5.083A5.173,5.173,0,0,1-1225-14560.839Zm10.5-1.452a2.958,2.958,0,0,1-3-2.9,2.958,2.958,0,0,1,3-2.9,2.956,2.956,0,0,1,3,2.9A2.956,2.956,0,0,1-1214.5-14562.291Zm-21,0a2.956,2.956,0,0,1-3-2.9,2.956,2.956,0,0,1,3-2.9,2.956,2.956,0,0,1,3,2.9A2.956,2.956,0,0,1-1235.5-14562.291Z" transform="translate(1281 14617)" fill="#f25b5b"/>
    <path id="Icon_awesome-times-circle" data-name="Icon awesome-times-circle" d="M5.931.563A5.368,5.368,0,1,0,11.3,5.931,5.367,5.367,0,0,0,5.931.563ZM8.563,7.34a.26.26,0,0,1,0,.368l-.857.855a.26.26,0,0,1-.368,0L5.931,7.143,4.522,8.563a.26.26,0,0,1-.368,0L3.3,7.706a.26.26,0,0,1,0-.368l1.42-1.407L3.3,4.522a.26.26,0,0,1,0-.368L4.156,3.3a.26.26,0,0,1,.368,0L5.931,4.718,7.34,3.3a.26.26,0,0,1,.368,0l.857.857a.26.26,0,0,1,0,.368L7.143,5.931Z" transform="translate(63.182 59.418)" fill="#f25b5b"/>
  </g>
</svg>
