<svg id="dashboard" xmlns="http://www.w3.org/2000/svg" width="16" height="16" viewBox="0 0 16 16">
  <path id="Path_9142" data-name="Path 9142" d="M6.306,0H1.193A1.194,1.194,0,0,0,0,1.193V4.261A1.194,1.194,0,0,0,1.193,5.454H6.306A1.194,1.194,0,0,0,7.5,4.261V1.193A1.194,1.194,0,0,0,6.306,0Zm0,0" fill="#fff"/>
  <path id="Path_9143" data-name="Path 9143" d="M6.306,213.332H1.193A1.194,1.194,0,0,0,0,214.525v7.158a1.194,1.194,0,0,0,1.193,1.193H6.306A1.194,1.194,0,0,0,7.5,221.683v-7.158A1.194,1.194,0,0,0,6.306,213.332Zm0,0" transform="translate(0 -206.876)" fill="#fff"/>
  <path id="Path_9144" data-name="Path 9144" d="M283.638,341.332h-5.113a1.194,1.194,0,0,0-1.193,1.193v3.068a1.194,1.194,0,0,0,1.193,1.193h5.113a1.194,1.194,0,0,0,1.193-1.193v-3.068A1.194,1.194,0,0,0,283.638,341.332Zm0,0" transform="translate(-268.831 -330.786)" fill="#fff"/>
  <path id="Path_9145" data-name="Path 9145" d="M283.638,0h-5.113a1.194,1.194,0,0,0-1.193,1.193V8.351a1.194,1.194,0,0,0,1.193,1.193h5.113a1.194,1.194,0,0,0,1.193-1.193V1.193A1.194,1.194,0,0,0,283.638,0Zm0,0" transform="translate(-268.831)" fill="#fff"/>
</svg>
