<svg xmlns="http://www.w3.org/2000/svg" width="15.53" height="15.879" viewBox="0 0 15.53 15.879">
  <g id="email-template" transform="translate(-4.702)">
    <g id="Group_1850" data-name="Group 1850" transform="translate(4.702)">
      <g id="Group_1849" data-name="Group 1849">
        <path id="Path_17481" data-name="Path 17481" d="M20.851,0H6.134a.387.387,0,0,0-.387.387V2.711a.387.387,0,0,0,.387.387H20.851a.387.387,0,0,0,.387-.387V.387A.387.387,0,0,0,20.851,0Z" transform="translate(-5.708)" fill="#fff"/>
        <path id="Path_17482" data-name="Path 17482" d="M312.64,114.939h-3.486a.387.387,0,0,0-.387.387v2.324a.387.387,0,0,0,.387.387h3.486a.387.387,0,0,0,.387-.387v-2.324A.387.387,0,0,0,312.64,114.939Z" transform="translate(-297.497 -110.679)" fill="#fff"/>
        <path id="Path_17483" data-name="Path 17483" d="M312.64,229.878h-3.486a.387.387,0,0,0-.387.387v2.324a.387.387,0,0,0,.387.387h3.486a.387.387,0,0,0,.387-.387v-2.324A.387.387,0,0,0,312.64,229.878Z" transform="translate(-297.497 -221.358)" fill="#fff"/>
        <path id="Path_17484" data-name="Path 17484" d="M312.64,344.816h-3.486a.387.387,0,0,0-.387.387v2.324a.387.387,0,0,0,.387.387h3.486a.387.387,0,0,0,.387-.387V345.2A.387.387,0,0,0,312.64,344.816Z" transform="translate(-297.497 -332.035)" fill="#fff"/>
        <path id="Path_17485" data-name="Path 17485" d="M15.236,114.939h-9.1a.387.387,0,0,0-.387.387v6.584a.387.387,0,0,0,.387.387h9.1a.387.387,0,0,0,.387-.387v-6.584A.387.387,0,0,0,15.236,114.939Z" transform="translate(-5.708 -110.679)" fill="#fff"/>
        <path id="Path_17486" data-name="Path 17486" d="M5.089,356.04h5.887a.387.387,0,1,0,0-.775H5.089a.387.387,0,1,0,0,.775Z" transform="translate(-4.702 -342.097)" fill="#fff"/>
        <path id="Path_17487" data-name="Path 17487" d="M14.074,407.51H5.089a.387.387,0,0,0,0,.775h8.985a.387.387,0,0,0,0-.775Z" transform="translate(-4.702 -392.406)" fill="#fff"/>
      </g>
    </g>
  </g>
</svg>
