<svg xmlns="http://www.w3.org/2000/svg" width="17.584" height="15.746" viewBox="0 0 17.584 15.746">
  <g id="email-management" transform="translate(-3 -6.065)">
    <path id="Path_17488" data-name="Path 17488" d="M3,27.094v8.949l4.994-4.915Z" transform="translate(0 -14.653)" fill="#fff"/>
    <path id="Path_17489" data-name="Path 17489" d="M11.775,43.214a.3.3,0,0,1-.381,0l-1.92-1.55L4.442,46.617H18.727l-5.032-4.953Z" transform="translate(-1.005 -24.806)" fill="#fff"/>
    <path id="Path_17490" data-name="Path 17490" d="M14.877,29.232c-.021-.01-.043-.019-.064-.03l-.693.231a.3.3,0,0,1-.31-.073L12.454,28a.3.3,0,0,1-.073-.31L12.613,27a4.875,4.875,0,0,1-.254-.6l-.606-.221A.3.3,0,0,1,11.574,26H4.83l7.025,5.674Z" transform="translate(-1.275 -13.891)" fill="#fff"/>
    <path id="Path_17491" data-name="Path 17491" d="M38.156,9.844a.3.3,0,0,1-.186-.2,4.324,4.324,0,0,0-.317-.76.3.3,0,0,1-.02-.239l.212-.637L36.753,6.921l-.637.212a.3.3,0,0,1-.239-.02,4.318,4.318,0,0,0-.76-.317.3.3,0,0,1-.2-.186l-.2-.546H32.978l-.2.546a.3.3,0,0,1-.2.186,4.318,4.318,0,0,0-.76.317.3.3,0,0,1-.239.02l-.637-.212L29.857,8.014l.212.637a.3.3,0,0,1-.02.239,4.324,4.324,0,0,0-.317.76.3.3,0,0,1-.186.2l-.546.2v1.745l.546.2a.3.3,0,0,1,.186.2,4.3,4.3,0,0,0,.317.759.3.3,0,0,1,.02.239l-.212.637,1.091,1.091.637-.212a.3.3,0,0,1,.239.02,4.29,4.29,0,0,0,.76.317.3.3,0,0,1,.2.186l.2.546h1.745l.2-.546a.3.3,0,0,1,.2-.186,4.29,4.29,0,0,0,.76-.318.3.3,0,0,1,.239-.02l.637.212,1.091-1.091-.212-.637a.3.3,0,0,1,.02-.239,4.3,4.3,0,0,0,.317-.759.3.3,0,0,1,.186-.194l.546-.2V10.043ZM33.851,14.25a3.335,3.335,0,1,1,3.335-3.335A3.335,3.335,0,0,1,33.851,14.25Z" transform="translate(-18.117)" fill="#fff"/>
    <path id="Path_17492" data-name="Path 17492" d="M40.687,36.818l-.221.606a.3.3,0,0,1-.285.2h-2.17a.3.3,0,0,1-.285-.2l-.187-.515-1.011.819,4.994,4.915v-6l-.23-.077A4.841,4.841,0,0,1,40.687,36.818Z" transform="translate(-23.362 -21.253)" fill="#fff"/>
  </g>
</svg>
