<svg xmlns="http://www.w3.org/2000/svg" width="17.421" height="14.808" viewBox="0 0 17.421 14.808">
  <g id="manage-org" transform="translate(0 -29.114)">
    <path id="Path_17560" data-name="Path 17560" d="M130.656,36.356c1.646,0,2.981-1.621,2.981-3.621s-.438-3.621-2.981-3.621-2.981,1.621-2.981,3.621S129.01,36.356,130.656,36.356Z" transform="translate(-121.946 0)" fill="#fff"/>
    <path id="Path_17561" data-name="Path 17561" d="M79.886,201.8c-.055-3.484-.51-4.476-3.992-5.1a2.446,2.446,0,0,1-3.265,0c-3.444.621-3.926,1.6-3.99,4.992-.005.277-.008.292-.008.259,0,.06,0,.172,0,.366,0,0,.829,1.671,5.63,1.671s5.63-1.671,5.63-1.671c0-.125,0-.212,0-.271A2.2,2.2,0,0,1,79.886,201.8Z" transform="translate(-65.551 -160.062)" fill="#fff"/>
    <path id="Path_17562" data-name="Path 17562" d="M262.8,50.9a2.719,2.719,0,0,0,2.421-2.941c0-1.624-.356-2.941-2.421-2.941a3.452,3.452,0,0,0-.9.107,5.936,5.936,0,0,1,.542,2.8,4.965,4.965,0,0,1-.744,2.65A2.074,2.074,0,0,0,262.8,50.9Z" transform="translate(-249.951 -15.19)" fill="#fff"/>
    <path id="Path_17563" data-name="Path 17563" d="M288.492,185.271c-.045-2.829-.414-3.636-3.242-4.146a1.7,1.7,0,0,1-1.326.507l-.112,0a3.72,3.72,0,0,1,1.521,1.177c.683.936.84,2.194.872,4.041,1.9-.376,2.292-1.161,2.292-1.161,0-.1,0-.173,0-.22A1.714,1.714,0,0,1,288.492,185.271Z" transform="translate(-271.077 -145.19)" fill="#fff"/>
    <path id="Path_17564" data-name="Path 17564" d="M50.376,50.9a2.075,2.075,0,0,0,1.1-.324,4.965,4.965,0,0,1-.744-2.65,5.936,5.936,0,0,1,.542-2.8,3.452,3.452,0,0,0-.9-.107c-2.065,0-2.421,1.317-2.421,2.941A2.719,2.719,0,0,0,50.376,50.9Z" transform="translate(-45.803 -15.191)" fill="#fff"/>
    <path id="Path_17565" data-name="Path 17565" d="M4.685,181.628l-.112,0a1.7,1.7,0,0,1-1.326-.507c-2.828.51-3.2,1.317-3.242,4.146a1.715,1.715,0,0,1-.005.2c0,.048,0,.118,0,.221,0,0,.39.785,2.292,1.161.033-1.847.189-3.105.872-4.041A3.72,3.72,0,0,1,4.685,181.628Z" transform="translate(0 -145.189)" fill="#fff"/>
  </g>
</svg>
