<svg xmlns="http://www.w3.org/2000/svg" width="32.138" height="24.136" viewBox="0 0 32.138 24.136">
  <g id="Group_1932" data-name="Group 1932" transform="translate(-40.999 -44.999)">
    <path id="Subtraction_7" data-name="Subtraction 7" d="M-918.489-14550.677h-13.263a2.217,2.217,0,0,1-2.249-2.18v-1.3a5.321,5.321,0,0,1,5.4-5.226h.388a7.622,7.622,0,0,0,3.211.728,7.57,7.57,0,0,0,3.211-.728h.391a5.4,5.4,0,0,1,4.97,3.185,5.907,5.907,0,0,0-2.14,4.553,5.946,5.946,0,0,0,.08.972Zm-16.923-4.355H-938.5a1.48,1.48,0,0,1-1.5-1.451v-1.452a2.958,2.958,0,0,1,3-2.9h3a3.019,3.019,0,0,1,2.114.845,6.7,6.7,0,0,0-3.525,4.961Zm25.411-1.911h0a5.84,5.84,0,0,0-2.646-.625,5.851,5.851,0,0,0-2.54.572,6.721,6.721,0,0,0-2.927-3,3.035,3.035,0,0,1,2.114-.845h3a2.956,2.956,0,0,1,3,2.9v.992Zm-15-3.9a5.171,5.171,0,0,1-5.248-5.079A5.173,5.173,0,0,1-925-14571a5.175,5.175,0,0,1,5.251,5.083A5.173,5.173,0,0,1-925-14560.839Zm10.5-1.452a2.958,2.958,0,0,1-3-2.9,2.958,2.958,0,0,1,3-2.9,2.956,2.956,0,0,1,3,2.9A2.956,2.956,0,0,1-914.5-14562.291Zm-21,0a2.956,2.956,0,0,1-3-2.9,2.956,2.956,0,0,1,3-2.9,2.956,2.956,0,0,1,3,2.9A2.956,2.956,0,0,1-935.5-14562.291Z" transform="translate(981 14616)" fill="#ffa400"/>
    <path id="Path_17506" data-name="Path 17506" d="M15.786,11a4.786,4.786,0,1,0,4.786,4.786A4.792,4.792,0,0,0,15.786,11Zm1.625,6.411a.736.736,0,0,1-1.041,0l-1.1-1.1a.733.733,0,0,1-.216-.521V13.945a.736.736,0,0,1,1.473,0v1.536l.889.889A.735.735,0,0,1,17.411,17.411Z" transform="translate(52.564 48.563)" fill="#ffa400"/>
  </g>
</svg>
