<svg xmlns="http://www.w3.org/2000/svg" width="25.97" height="23.494" viewBox="0 0 25.97 23.494">
  <g id="XMLID_90_" transform="translate(0.001 -15.004)">
    <path id="XMLID_91_" d="M8.656,22.423c4.954,0,8.656-1.958,8.656-3.71S13.61,15,8.656,15,0,16.963,0,18.714,3.7,22.423,8.656,22.423Z" transform="translate(-0.001)" fill="#1a2a4c"/>
    <path id="XMLID_92_" d="M8.656,232.7a18.122,18.122,0,0,0,2.081-.119,9.9,9.9,0,0,1-1.365-2.368c-.238.008-.476.014-.716.014a17.264,17.264,0,0,1-7.548-1.579A9.8,9.8,0,0,1,0,228v.987C0,230.742,3.7,232.7,8.656,232.7Z" transform="translate(-0.001 -195.438)" fill="#1a2a4c"/>
    <path id="XMLID_93_" d="M8.655,172.709h.076a9.947,9.947,0,0,1,0-2.473H8.655a17.265,17.265,0,0,1-7.548-1.579A9.806,9.806,0,0,1,0,168.013V169C0,170.751,3.7,172.709,8.655,172.709Z" transform="translate(0 -140.393)" fill="#1a2a4c"/>
    <path id="XMLID_102_" d="M8.655,112.717q.368,0,.726-.014a9.908,9.908,0,0,1,1.548-2.583,20.784,20.784,0,0,1-2.275.125,17.265,17.265,0,0,1-7.548-1.579A9.809,9.809,0,0,1,0,108.021v.987C0,110.759,3.7,112.717,8.655,112.717Z" transform="translate(0 -85.348)" fill="#1a2a4c"/>
    <path id="Subtraction_9" data-name="Subtraction 9" d="M-376.611-14763.079a7.388,7.388,0,0,1-5-1.943,7.428,7.428,0,0,1-1.573-2.036,7.238,7.238,0,0,1-.771-2.385,7.113,7.113,0,0,1-.078-1.057,7.586,7.586,0,0,1,.134-1.4,7.38,7.38,0,0,1,1.105-2.7,7.437,7.437,0,0,1,4.94-3.216,7.269,7.269,0,0,1,1.242-.107,7.43,7.43,0,0,1,7.421,7.421A7.43,7.43,0,0,1-376.611-14763.079Zm-.883-6.353a.228.228,0,0,0-.156.063l-.49.479a.233.233,0,0,0-.068.179.231.231,0,0,0,.09.166,2,2,0,0,0,1.22.423v.676a.223.223,0,0,0,.226.226h.449a.223.223,0,0,0,.226-.226v-.679a1.58,1.58,0,0,0,1.487-1.024,1.53,1.53,0,0,0-.081-1.218,1.548,1.548,0,0,0-.938-.777l-1.521-.444a.419.419,0,0,1-.3-.4.416.416,0,0,1,.415-.415H-376a.854.854,0,0,1,.482.148.208.208,0,0,0,.115.033.234.234,0,0,0,.159-.063l.49-.479a.216.216,0,0,0,.067-.17.238.238,0,0,0-.093-.175,1.984,1.984,0,0,0-1.216-.423v-.675a.224.224,0,0,0-.226-.227h-.449a.224.224,0,0,0-.226.227v.675h-.037a1.539,1.539,0,0,0-1.137.5,1.519,1.519,0,0,0-.394,1.179,1.61,1.61,0,0,0,1.179,1.361l1.443.423a.42.42,0,0,1,.3.4.416.416,0,0,1-.415.415h-.935a.872.872,0,0,1-.482-.145A.2.2,0,0,0-377.493-14769.432Z" transform="translate(395.159 14801.577)" fill="#1a2a4c"/>
  </g>
</svg>
