<svg xmlns="http://www.w3.org/2000/svg" width="25.969" height="23.495" viewBox="0 0 25.969 23.495">
  <g id="XMLID_90_" transform="translate(0.001 -15.004)">
    <path id="XMLID_91_" d="M8.656,22.423c4.954,0,8.656-1.958,8.656-3.71S13.61,15,8.656,15,0,16.963,0,18.714,3.7,22.423,8.656,22.423Z" transform="translate(-0.001)" fill="#01cb5d"/>
    <path id="XMLID_92_" d="M8.656,232.7a18.122,18.122,0,0,0,2.081-.119,9.9,9.9,0,0,1-1.365-2.368c-.238.008-.476.014-.716.014a17.264,17.264,0,0,1-7.548-1.579A9.8,9.8,0,0,1,0,228v.987C0,230.742,3.7,232.7,8.656,232.7Z" transform="translate(-0.001 -195.438)" fill="#01cb5d"/>
    <path id="XMLID_93_" d="M8.655,172.709h.076a9.947,9.947,0,0,1,0-2.473H8.655a17.265,17.265,0,0,1-7.548-1.579A9.806,9.806,0,0,1,0,168.013V169C0,170.751,3.7,172.709,8.655,172.709Z" transform="translate(0 -140.393)" fill="#01cb5d"/>
    <path id="XMLID_102_" d="M8.655,112.717q.368,0,.726-.014a9.908,9.908,0,0,1,1.548-2.583,20.784,20.784,0,0,1-2.275.125,17.265,17.265,0,0,1-7.548-1.579A9.809,9.809,0,0,1,0,108.021v.987C0,110.759,3.7,112.717,8.655,112.717Z" transform="translate(0 -85.348)" fill="#01cb5d"/>
    <path id="Icon_awesome-check-circle" data-name="Icon awesome-check-circle" d="M15.4,7.983A7.42,7.42,0,1,1,7.983.562,7.42,7.42,0,0,1,15.4,7.983ZM7.125,11.912,12.63,6.406a.479.479,0,0,0,0-.677l-.677-.677a.479.479,0,0,0-.677,0l-4.49,4.49-2.1-2.1a.479.479,0,0,0-.677,0l-.677.677a.479.479,0,0,0,0,.677l3.112,3.112A.479.479,0,0,0,7.125,11.912Z" transform="translate(10.565 23.096)" fill="#01cb5d"/>
  </g>
</svg>
