<svg id="reports" xmlns="http://www.w3.org/2000/svg" width="14" height="18.379" viewBox="0 0 14 18.379">
  <path id="Path_9153" data-name="Path 9153" d="M61,.551v14.4a.6.6,0,0,0,.645.551h11.6a.6.6,0,0,0,.645-.551V.551A.6.6,0,0,0,73.246,0h-11.6A.6.6,0,0,0,61,.551ZM71.312,12.714H68.734a.558.558,0,1,1,0-1.1h2.578a.558.558,0,1,1,0,1.1ZM63.578,2.793h3.867a.6.6,0,0,1,.645.551.6.6,0,0,1-.645.551H63.578a.6.6,0,0,1-.645-.551A.6.6,0,0,1,63.578,2.793Zm0,2.2h7.734a.6.6,0,0,1,.645.551.6.6,0,0,1-.645.551H63.578a.6.6,0,0,1-.645-.551A.6.6,0,0,1,63.578,5Zm0,2.2h7.734a.6.6,0,0,1,.645.551.6.6,0,0,1-.645.551H63.578a.6.6,0,0,1-.645-.551A.6.6,0,0,1,63.578,7.2Zm0,2.2h7.734a.6.6,0,0,1,.645.551.6.6,0,0,1-.645.551H63.578a.6.6,0,0,1-.645-.551A.6.6,0,0,1,63.578,9.407Z" transform="translate(-61)" fill="#fff"/>
  <path id="Path_9154" data-name="Path 9154" d="M151.645,106.464h11.6a.6.6,0,0,0,.645-.551V91.551a.6.6,0,0,0-.645-.551h-1.934v11.607a1.812,1.812,0,0,1-1.934,1.653H151v1.653A.6.6,0,0,0,151.645,106.464Z" transform="translate(-149.891 -88.085)" fill="#fff"/>
</svg>
