<svg id="Page-1" xmlns="http://www.w3.org/2000/svg" width="14.9" height="14.9" viewBox="0 0 14.9 14.9">
  <g id="_064---Subscription-Models" data-name="064---Subscription-Models">
    <path id="Shape" d="M7.188.626A.585.585,0,0,0,6.656,0H4.528A.585.585,0,0,0,4,.626V4.257H7.188ZM5.858,3.41v.049a.266.266,0,1,1-.532,0V3.406A.8.8,0,0,1,4.9,3.06a.266.266,0,0,1,.461-.266.266.266,0,1,0,.231-.4A.8.8,0,0,1,5.326.847V.8a.266.266,0,0,1,.532,0V.851a.8.8,0,0,1,.426.346.266.266,0,0,1-.461.266.266.266,0,1,0-.231.4A.8.8,0,0,1,5.858,3.41Z" transform="translate(-2.931)" fill="#fff"/>
    <path id="Shape-2" data-name="Shape" d="M25.188.626A.585.585,0,0,0,24.656,0H22.528A.585.585,0,0,0,22,.626V4.257h3.193ZM23.858,3.41v.049a.266.266,0,0,1-.532,0V3.406A.8.8,0,0,1,22.9,3.06a.266.266,0,0,1,.461-.266.266.266,0,1,0,.231-.4A.8.8,0,0,1,23.326.847V.8a.266.266,0,1,1,.532,0V.851a.8.8,0,0,1,.426.346.266.266,0,0,1-.461.266.266.266,0,1,0-.231.4.8.8,0,0,1,.266,1.547Z" transform="translate(-16.142)" fill="#fff"/>
    <path id="Shape-3" data-name="Shape" d="M22.528,22.789h2.129a.585.585,0,0,0,.532-.626V18H22v4.163A.585.585,0,0,0,22.528,22.789Zm.266-4.257h1.6a.266.266,0,0,1,0,.532h-1.6a.266.266,0,0,1,0-.532Zm0,1.064h1.6a.266.266,0,1,1,0,.532h-1.6a.266.266,0,1,1,0-.532Zm0,1.064h1.6a.266.266,0,1,1,0,.532h-1.6a.266.266,0,1,1,0-.532Z" transform="translate(-16.142 -13.211)" fill="#fff"/>
    <path id="Shape-4" data-name="Shape" d="M40.528,22.789h2.129a.585.585,0,0,0,.532-.626V18H40v4.163A.585.585,0,0,0,40.528,22.789Zm.266-4.257h1.6a.266.266,0,0,1,0,.532h-1.6a.266.266,0,1,1,0-.532Zm0,1.064h1.6a.266.266,0,1,1,0,.532h-1.6a.266.266,0,1,1,0-.532Zm0,1.064h1.6a.266.266,0,1,1,0,.532h-1.6a.266.266,0,1,1,0-.532Zm0,1.064h1.6a.266.266,0,1,1,0,.532h-1.6a.266.266,0,1,1,0-.532Z" transform="translate(-29.353 -13.211)" fill="#fff"/>
    <path id="Shape-5" data-name="Shape" d="M43.188.626A.585.585,0,0,0,42.656,0H40.528A.585.585,0,0,0,40,.626V4.257h3.193ZM41.858,3.41v.049a.266.266,0,0,1-.532,0V3.406A.8.8,0,0,1,40.9,3.06a.266.266,0,0,1,.461-.266.266.266,0,1,0,.231-.4A.8.8,0,0,1,41.326.847V.8a.266.266,0,0,1,.532,0V.851a.8.8,0,0,1,.426.346.266.266,0,0,1-.461.266.266.266,0,1,0-.231.4.8.8,0,0,1,.266,1.547Z" transform="translate(-29.353)" fill="#fff"/>
    <path id="Shape-6" data-name="Shape" d="M2.129,14.312H14.9V5.266A.266.266,0,0,0,14.634,5h-.266v7.622A1.115,1.115,0,0,1,13.3,13.78H11.175a1.115,1.115,0,0,1-1.064-1.158V5H9.579v7.622A1.115,1.115,0,0,1,8.514,13.78H6.386a1.115,1.115,0,0,1-1.064-1.158V5H4.789v7.622A1.115,1.115,0,0,1,3.725,13.78H1.6A1.115,1.115,0,0,1,.532,12.622V5H.266A.266.266,0,0,0,0,5.266v9.046H1.064a.266.266,0,1,1,0,.532H0v.8a.266.266,0,0,0,.266.266H14.634a.266.266,0,0,0,.266-.266v-.8H2.129a.266.266,0,1,1,0-.532Z" transform="translate(0 -3.67)" fill="#fff"/>
    <path id="Shape-7" data-name="Shape" d="M4.528,22.789H6.656a.585.585,0,0,0,.532-.626V18H4v4.163A.585.585,0,0,0,4.528,22.789Zm.266-4.257h1.6a.266.266,0,1,1,0,.532h-1.6a.266.266,0,1,1,0-.532Zm0,1.064h1.6a.266.266,0,1,1,0,.532h-1.6a.266.266,0,1,1,0-.532Z" transform="translate(-2.931 -13.211)" fill="#fff"/>
    <path id="Shape-8" data-name="Shape" d="M20.248,54H12.266a.266.266,0,1,0,0,.532h7.982a.266.266,0,0,0,0-.532Z" transform="translate(-8.807 -39.632)" fill="#fff"/>
    <path id="Shape-9" data-name="Shape" d="M19.15,48l-.532,1.064h4.993L23.078,48Z" transform="translate(-13.664 -35.229)" fill="#fff"/>
  </g>
</svg>
