<svg xmlns="http://www.w3.org/2000/svg" width="30" height="20.323" viewBox="0 0 30 20.323">
  <path id="Icon_awesome-users" data-name="Icon awesome-users" d="M4.5,10.96a2.956,2.956,0,0,0,3-2.9,2.956,2.956,0,0,0-3-2.9,2.956,2.956,0,0,0-3,2.9A2.956,2.956,0,0,0,4.5,10.96Zm21,0a2.956,2.956,0,0,0,3-2.9,3,3,0,0,0-6,0A2.956,2.956,0,0,0,25.5,10.96ZM27,12.412H24a3.042,3.042,0,0,0-2.114.844,6.64,6.64,0,0,1,3.52,4.963H28.5A1.475,1.475,0,0,0,30,16.767V15.315A2.956,2.956,0,0,0,27,12.412Zm-12,0a5.165,5.165,0,0,0,5.25-5.081A5.165,5.165,0,0,0,15,2.25,5.165,5.165,0,0,0,9.75,7.331,5.165,5.165,0,0,0,15,12.412Zm3.6,1.452h-.389a7.465,7.465,0,0,1-6.422,0H11.4A5.317,5.317,0,0,0,6,19.089V20.4a2.215,2.215,0,0,0,2.25,2.177h13.5A2.215,2.215,0,0,0,24,20.4V19.089A5.316,5.316,0,0,0,18.6,13.863ZM8.114,13.255A3.042,3.042,0,0,0,6,12.412H3a2.956,2.956,0,0,0-3,2.9v1.452a1.475,1.475,0,0,0,1.5,1.452H4.589A6.658,6.658,0,0,1,8.114,13.255Z" transform="translate(0 -2.25)" fill="#5ca4eb"/>
</svg>
