<svg id="Page-1" xmlns="http://www.w3.org/2000/svg" width="23.207" height="23.207" viewBox="0 0 23.207 23.207">
  <g id="_064---Subscription-Models" data-name="064---Subscription-Models">
    <path id="Shape" d="M8.969.975A.912.912,0,0,0,8.141,0H4.825A.912.912,0,0,0,4,.975V6.63H8.969ZM6.9,5.311v.076a.414.414,0,1,1-.829,0V5.3a1.243,1.243,0,0,1-.663-.539.414.414,0,0,1,.717-.414.414.414,0,1,0,.36-.622,1.24,1.24,0,0,1-.414-2.41V1.243a.414.414,0,1,1,.829,0v.083a1.243,1.243,0,0,1,.663.539.414.414,0,0,1-.717.414.414.414,0,1,0-.36.622A1.24,1.24,0,0,1,6.9,5.311Z" transform="translate(-2.339)" fill="#5ca4eb"/>
    <path id="Shape-2" data-name="Shape" d="M26.969.975A.912.912,0,0,0,26.141,0H22.825A.912.912,0,0,0,22,.975V6.63h4.973ZM24.9,5.311v.076a.414.414,0,0,1-.829,0V5.3a1.243,1.243,0,0,1-.663-.539.414.414,0,0,1,.717-.414.414.414,0,1,0,.36-.622,1.24,1.24,0,0,1-.414-2.41V1.243a.414.414,0,1,1,.829,0v.083a1.243,1.243,0,0,1,.663.539.414.414,0,0,1-.717.414.414.414,0,1,0-.36.622,1.24,1.24,0,0,1,.414,2.41Z" transform="translate(-12.88)" fill="#5ca4eb"/>
    <path id="Shape-3" data-name="Shape" d="M22.825,25.459h3.315a.912.912,0,0,0,.829-.975V18H22v6.484A.912.912,0,0,0,22.825,25.459Zm.414-6.63h2.486a.414.414,0,0,1,0,.829H23.24a.414.414,0,0,1,0-.829Zm0,1.658h2.486a.414.414,0,0,1,0,.829H23.24a.414.414,0,0,1,0-.829Zm0,1.658h2.486a.414.414,0,1,1,0,.829H23.24a.414.414,0,1,1,0-.829Z" transform="translate(-12.88 -10.541)" fill="#5ca4eb"/>
    <path id="Shape-4" data-name="Shape" d="M40.825,25.459h3.315a.912.912,0,0,0,.829-.975V18H40v6.484A.912.912,0,0,0,40.825,25.459Zm.414-6.63h2.486a.414.414,0,1,1,0,.829H41.24a.414.414,0,1,1,0-.829Zm0,1.658h2.486a.414.414,0,1,1,0,.829H41.24a.414.414,0,1,1,0-.829Zm0,1.658h2.486a.414.414,0,1,1,0,.829H41.24a.414.414,0,1,1,0-.829Zm0,1.658h2.486a.414.414,0,1,1,0,.829H41.24a.414.414,0,1,1,0-.829Z" transform="translate(-23.42 -10.541)" fill="#5ca4eb"/>
    <path id="Shape-5" data-name="Shape" d="M44.969.975A.912.912,0,0,0,44.141,0H40.825A.912.912,0,0,0,40,.975V6.63h4.973ZM42.9,5.311v.076a.414.414,0,0,1-.829,0V5.3a1.243,1.243,0,0,1-.663-.539.414.414,0,0,1,.717-.414.414.414,0,1,0,.36-.622,1.24,1.24,0,0,1-.414-2.41V1.243a.414.414,0,0,1,.829,0v.083a1.243,1.243,0,0,1,.663.539.414.414,0,0,1-.717.414.414.414,0,1,0-.36.622,1.24,1.24,0,0,1,.414,2.41Z" transform="translate(-23.42)" fill="#5ca4eb"/>
    <path id="Shape-6" data-name="Shape" d="M3.315,19.5H23.207V5.414A.414.414,0,0,0,22.792,5h-.414V16.871a1.737,1.737,0,0,1-1.658,1.8H17.4a1.737,1.737,0,0,1-1.658-1.8V5h-.829V16.871a1.737,1.737,0,0,1-1.658,1.8H9.946a1.737,1.737,0,0,1-1.658-1.8V5H7.459V16.871a1.737,1.737,0,0,1-1.658,1.8H2.486a1.737,1.737,0,0,1-1.658-1.8V5H.414A.414.414,0,0,0,0,5.414V19.5H1.658a.414.414,0,1,1,0,.829H0v1.243a.414.414,0,0,0,.414.414H22.792a.414.414,0,0,0,.414-.414V20.333H3.315a.414.414,0,1,1,0-.829Z" transform="translate(0 -2.928)" fill="#5ca4eb"/>
    <path id="Shape-7" data-name="Shape" d="M4.825,25.459H8.141a.912.912,0,0,0,.829-.975V18H4v6.484A.912.912,0,0,0,4.825,25.459Zm.414-6.63H7.726a.414.414,0,1,1,0,.829H5.24a.414.414,0,0,1,0-.829Zm0,1.658H7.726a.414.414,0,1,1,0,.829H5.24a.414.414,0,1,1,0-.829Z" transform="translate(-2.339 -10.541)" fill="#5ca4eb"/>
    <path id="Shape-8" data-name="Shape" d="M24.847,54H12.414a.414.414,0,0,0,0,.829H24.847a.414.414,0,0,0,0-.829Z" transform="translate(-7.027 -31.622)" fill="#5ca4eb"/>
    <path id="Shape-9" data-name="Shape" d="M19.447,48l-.829,1.658h7.776L25.565,48Z" transform="translate(-10.903 -28.109)" fill="#5ca4eb"/>
  </g>
</svg>
