<svg xmlns="http://www.w3.org/2000/svg" width="16.887" height="14.939" viewBox="0 0 16.887 14.939">
  <g id="transactions" transform="translate(0 -29.539)">
    <g id="Group_1844" data-name="Group 1844" transform="translate(0 33.923)">
      <g id="Group_1843" data-name="Group 1843">
        <path id="Path_17478" data-name="Path 17478" d="M14.614,169.606a1.461,1.461,0,0,1-1.2-.633l-.715-1.04a4.874,4.874,0,0,1-9.1-1.9H4.06a.487.487,0,0,0,.4-.763l-.71-1.033-1.076-1.565a.487.487,0,0,0-.8,0l-1.786,2.6a.487.487,0,0,0,.4.763h.5a7.47,7.47,0,0,0,12.736,4.795,7.521,7.521,0,0,0,.992-1.226C14.683,169.6,14.649,169.606,14.614,169.606Z" transform="translate(0 -162.461)" fill="#fff"/>
      </g>
    </g>
    <g id="Group_1846" data-name="Group 1846" transform="translate(6.843 33.923)">
      <g id="Group_1845" data-name="Group 1845">
        <path id="Path_17479" data-name="Path 17479" d="M209.445,165.061H208.7a.255.255,0,0,1-.255-.255v-.371a.255.255,0,0,1,.255-.255h.742a.255.255,0,0,1,.255.255.487.487,0,1,0,.974,0,1.231,1.231,0,0,0-1.113-1.224v-.261a.487.487,0,0,0-.974,0v.261a1.231,1.231,0,0,0-1.113,1.224v.371a1.231,1.231,0,0,0,1.229,1.229h.742a.255.255,0,0,1,.255.255v.371a.255.255,0,0,1-.255.255H208.7a.255.255,0,0,1-.255-.255.487.487,0,1,0-.974,0,1.231,1.231,0,0,0,1.113,1.224v.261a.487.487,0,1,0,.974,0v-.261a1.231,1.231,0,0,0,1.113-1.224v-.371A1.231,1.231,0,0,0,209.445,165.061Z" transform="translate(-207.473 -162.463)" fill="#fff"/>
      </g>
    </g>
    <g id="Group_1848" data-name="Group 1848" transform="translate(2.17 29.539)">
      <g id="Group_1847" data-name="Group 1847">
        <path id="Path_17480" data-name="Path 17480" d="M80.446,36.782a.487.487,0,0,0-.431-.26h-.5a7.47,7.47,0,0,0-12.735-4.795,7.52,7.52,0,0,0-.992,1.226c.034,0,.069,0,.1,0a1.461,1.461,0,0,1,1.2.633l.715,1.04a4.874,4.874,0,0,1,9.1,1.9h-.463a.487.487,0,0,0-.4.763l.71,1.033,1.076,1.565a.487.487,0,0,0,.8,0l.645-.938,1.141-1.66A.487.487,0,0,0,80.446,36.782Z" transform="translate(-65.784 -29.539)" fill="#fff"/>
      </g>
    </g>
  </g>
</svg>
